<?xml version="1.0" standalone="yes"?>

<svg version="1.1" viewBox="0.0 0.0 960.0 720.0" fill="none" stroke="none" stroke-linecap="square" stroke-miterlimit="10" xmlns="http://www.w3.org/2000/svg" xmlns:xlink="http://www.w3.org/1999/xlink"><clipPath id="p.0"><path d="m0 0l960.0 0l0 720.0l-960.0 0l0 -720.0z" clip-rule="nonzero"></path></clipPath><g clip-path="url(#p.0)"><path fill="#000000" fill-opacity="0.0" d="m0 0l960.0 0l0 720.0l-960.0 0z" fill-rule="nonzero"></path><path fill="#000000" fill-opacity="0.0" d="m134.58057 274.548l65.62622 -80.05643" fill-rule="nonzero"></path><path stroke="#000000" stroke-width="2.0" stroke-linejoin="round" stroke-linecap="butt" d="m134.58058 274.54803l58.018616 -70.77611" fill-rule="evenodd"></path><path fill="#000000" stroke="#000000" stroke-width="2.0" stroke-linecap="butt" d="m195.15399 205.86621l3.1992035 -9.11348l-8.308762 4.9249268z" fill-rule="evenodd"></path><path fill="#000000" fill-opacity="0.0" d="m198.81888 195.09148l75.33002 -24.552322" fill-rule="nonzero"></path><path stroke="#000000" stroke-width="2.0" stroke-linejoin="round" stroke-linecap="butt" d="m198.81888 195.09148l63.920715 -20.83368" fill-rule="evenodd"></path><path fill="#000000" stroke="#000000" stroke-width="2.0" stroke-linecap="butt" d="m263.7633 177.39864l7.605713 -5.95343l-9.653107 -0.32826233z" fill-rule="evenodd"></path><path fill="#000000" fill-opacity="0.0" d="m273.46664 169.07835l92.77179 29.40422" fill-rule="nonzero"></path><path stroke="#000000" stroke-width="2.0" stroke-linejoin="round" stroke-linecap="butt" d="m273.46664 169.07835l81.33261 25.778534" fill-rule="evenodd"></path><path fill="#000000" stroke="#000000" stroke-width="2.0" stroke-linecap="butt" d="m353.80118 198.00598l9.650085 -0.40679932l-7.6539 -5.8913574z" fill-rule="evenodd"></path><path fill="#ff0000" d="m92.50939 237.54987l0 0c0 2.6218872 2.2565384 4.747345 5.040123 4.747345l0 0c1.3367233 0 2.6186981 -0.50016785 3.5639038 -1.3904724c0.9452133 -0.8902893 1.4762192 -2.0977936 1.4762192 -3.3568726l0 0c0 -2.6218872 -2.2565384 -4.7473297 -5.040123 -4.7473297l0 0c-2.7835846 0 -5.040123 2.1254425 -5.040123 4.7473297z" fill-rule="nonzero"></path><path stroke="#000000" stroke-width="1.0" stroke-linejoin="round" stroke-linecap="butt" d="m92.50939 237.54987l0 0c0 2.6218872 2.2565384 4.747345 5.040123 4.747345l0 0c1.3367233 0 2.6186981 -0.50016785 3.5639038 -1.3904724c0.9452133 -0.8902893 1.4762192 -2.0977936 1.4762192 -3.3568726l0 0c0 -2.6218872 -2.2565384 -4.7473297 -5.040123 -4.7473297l0 0c-2.7835846 0 -5.040123 2.1254425 -5.040123 4.7473297z" fill-rule="nonzero"></path><path fill="#000000" fill-opacity="0.0" d="m134.90945 272.36047l-33.796036 -31.453735" fill-rule="nonzero"></path><path stroke="#3d85c6" stroke-width="1.0" stroke-linejoin="round" stroke-linecap="butt" stroke-dasharray="4.0,3.0" d="m134.90945 272.36047l-33.796036 -31.453735" fill-rule="nonzero"></path><path fill="#000000" fill-opacity="0.0" d="m218.58768 544.984l90.39838 -60.041992" fill-rule="nonzero"></path><path stroke="#000000" stroke-width="2.0" stroke-linejoin="round" stroke-linecap="butt" d="m218.58766 544.98395l80.40239 -53.40268" fill-rule="evenodd"></path><path fill="#000000" stroke="#000000" stroke-width="2.0" stroke-linecap="butt" d="m300.81778 494.33307l5.7327576 -7.773407l-9.388214 2.2698364z" fill-rule="evenodd"></path><path fill="#000000" fill-opacity="0.0" d="m307.47296 485.15765l83.11737 -1.4473267" fill-rule="nonzero"></path><path stroke="#b7b7b7" stroke-width="2.0" stroke-linejoin="round" stroke-linecap="butt" d="m307.47296 485.15765l71.1192 -1.2384033" fill-rule="evenodd"></path><path fill="#b7b7b7" stroke="#b7b7b7" stroke-width="2.0" stroke-linecap="butt" d="m378.6497 487.22223l9.017303 -3.460968l-9.132355 -3.1449585z" fill-rule="evenodd"></path><path fill="#000000" fill-opacity="0.0" d="m390.31244 482.1026l83.90689 58.024475" fill-rule="nonzero"></path><path stroke="#000000" stroke-width="2.0" stroke-linejoin="round" stroke-linecap="butt" d="m390.31247 482.1026l74.03699 51.199097" fill-rule="evenodd"></path><path fill="#000000" stroke="#000000" stroke-width="2.0" stroke-linecap="butt" d="m462.4705 536.0188l9.344025 2.4453125l-5.5861206 -7.8794556z" fill-rule="evenodd"></path><path fill="#ff0000" d="m187.85597 494.93158l0 0c-0.8236084 2.6281128 0.75720215 5.455719 3.5308533 6.3155823l0 0c1.3319397 0.41293335 2.7664642 0.3076172 3.9879608 -0.29281616c1.2215118 -0.60043335 2.1299438 -1.646759 2.5254517 -2.9088135l0 0c0.82362366 -2.6281128 -0.75720215 -5.455719 -3.530838 -6.315613l0 0c-2.7736511 -0.8598938 -5.689804 0.57354736 -6.5134277 3.2016602z" fill-rule="nonzero"></path><path stroke="#000000" stroke-width="1.0" stroke-linejoin="round" stroke-linecap="butt" d="m187.85597 494.93158l0 0c-0.8236084 2.6281128 0.75720215 5.455719 3.5308533 6.3155823l0 0c1.3319397 0.41293335 2.7664642 0.3076172 3.9879608 -0.29281616c1.2215118 -0.60043335 2.1299438 -1.646759 2.5254517 -2.9088135l0 0c0.82362366 -2.6281128 -0.75720215 -5.455719 -3.530838 -6.315613l0 0c-2.7736511 -0.8598938 -5.689804 0.57354736 -6.5134277 3.2016602z" fill-rule="nonzero"></path><path fill="#000000" fill-opacity="0.0" d="m219.63016 542.8829l-24.255371 -41.928528" fill-rule="nonzero"></path><path stroke="#3d85c6" stroke-width="1.0" stroke-linejoin="round" stroke-linecap="butt" stroke-dasharray="4.0,3.0" d="m219.63016 542.8829l-24.255371 -41.928528" fill-rule="nonzero"></path><path fill="#000000" fill-opacity="0.0" d="m305.23364 482.79675l-71.49411 -120.434814" fill-rule="nonzero"></path><path stroke="#3d85c6" stroke-width="1.0" stroke-linejoin="round" stroke-linecap="butt" stroke-dasharray="4.0,3.0" d="m305.23364 482.79675l-71.49411 -120.434814" fill-rule="nonzero"></path><path fill="#000000" fill-opacity="0.0" d="m198.23247 493.82834l84.03847 -51.00714" fill-rule="nonzero"></path><path stroke="#3d85c6" stroke-width="1.0" stroke-linejoin="round" stroke-linecap="butt" stroke-dasharray="4.0,3.0" d="m198.23247 493.82834l84.03847 -51.00714" fill-rule="nonzero"></path><path fill="#00ff00" d="m277.295 446.07294l0 0c1.4171143 2.3616638 4.588562 3.0587463 7.083618 1.5569763l0 0c1.1981812 -0.7211914 2.0769653 -1.8633728 2.4429932 -3.1752625c0.36602783 -1.3118896 0.18936157 -2.6860352 -0.4911499 -3.8201294l0 0c-1.4171143 -2.3616943 -4.5885315 -3.0587769 -7.083618 -1.5569763l0 0c-2.4950562 1.50177 -3.368927 4.633728 -1.9518433 6.995392z" fill-rule="nonzero"></path><path stroke="#000000" stroke-width="1.0" stroke-linejoin="round" stroke-linecap="butt" d="m277.295 446.07294l0 0c1.4171143 2.3616638 4.588562 3.0587463 7.083618 1.5569763l0 0c1.1981812 -0.7211914 2.0769653 -1.8633728 2.4429932 -3.1752625c0.36602783 -1.3118896 0.18936157 -2.6860352 -0.4911499 -3.8201294l0 0c-1.4171143 -2.3616943 -4.5885315 -3.0587769 -7.083618 -1.5569763l0 0c-2.4950562 1.50177 -3.368927 4.633728 -1.9518433 6.995392z" fill-rule="nonzero"></path><path fill="#000000" fill-opacity="0.0" d="m394.67783 175.99144l96.295105 -0.5453644" fill-rule="nonzero"></path><path stroke="#b7b7b7" stroke-width="2.0" stroke-linejoin="round" stroke-linecap="butt" d="m394.67783 175.99142l84.29532 -0.47740173" fill-rule="evenodd"></path><path fill="#b7b7b7" stroke="#b7b7b7" stroke-width="2.0" stroke-linecap="butt" d="m478.99182 178.81744l9.057343 -3.3548126l-9.094757 -3.2520142z" fill-rule="evenodd"></path><path fill="#000000" fill-opacity="0.0" d="m489.8301 174.86299l62.404816 39.421783" fill-rule="nonzero"></path><path stroke="#000000" stroke-width="2.0" stroke-linejoin="round" stroke-linecap="butt" d="m489.8301 174.863l52.259552 33.012894" fill-rule="evenodd"></path><path fill="#000000" stroke="#000000" stroke-width="2.0" stroke-linecap="butt" d="m540.3254 210.6688l9.437683 2.0544586l-5.9091187 -7.640213z" fill-rule="evenodd"></path><path fill="#000000" fill-opacity="0.0" d="m552.8343 212.9501l34.04608 84.063446" fill-rule="nonzero"></path><path stroke="#000000" stroke-width="2.0" stroke-linejoin="round" stroke-linecap="butt" d="m552.8343 212.9501l29.541382 72.94104" fill-rule="evenodd"></path><path fill="#000000" stroke="#000000" stroke-width="2.0" stroke-linecap="butt" d="m579.31384 287.1312l6.468933 7.1723633l-0.34521484 -9.652496z" fill-rule="evenodd"></path><path fill="#ff0000" d="m395.60678 123.8084l0 0c-1.8824768 1.559761 -2.0743103 4.4374313 -0.4284973 6.4274673l0 0c0.79034424 0.9556427 1.9074097 1.5746002 3.1054993 1.7207184c1.1980896 0.1461029 2.3789978 -0.1926117 3.2829895 -0.94163513l0 0c1.8824768 -1.5597534 2.0743103 -4.4374313 0.4284973 -6.4274597l0 0c-1.645813 -1.990036 -4.5060425 -2.3388443 -6.388489 -0.7790909z" fill-rule="nonzero"></path><path stroke="#000000" stroke-width="1.0" stroke-linejoin="round" stroke-linecap="butt" d="m395.60678 123.8084l0 0c-1.8824768 1.559761 -2.0743103 4.4374313 -0.4284973 6.4274673l0 0c0.79034424 0.9556427 1.9074097 1.5746002 3.1054993 1.7207184c1.1980896 0.1461029 2.3789978 -0.1926117 3.2829895 -0.94163513l0 0c1.8824768 -1.5597534 2.0743103 -4.4374313 0.4284973 -6.4274597l0 0c-1.645813 -1.990036 -4.5060425 -2.3388443 -6.388489 -0.7790909z" fill-rule="nonzero"></path><path fill="#000000" fill-opacity="0.0" d="m398.898 176.4835l-1.0128174 -44.368988" fill-rule="nonzero"></path><path stroke="#3d85c6" stroke-width="1.0" stroke-linejoin="round" stroke-linecap="butt" stroke-dasharray="4.0,3.0" d="m398.898 176.4835l-1.0128174 -44.368988" fill-rule="nonzero"></path><path fill="#000000" fill-opacity="0.0" d="m765.21735 189.91539l69.18994 40.03734" fill-rule="nonzero"></path><path stroke="#000000" stroke-width="2.0" stroke-linejoin="round" stroke-linecap="butt" d="m765.21735 189.91539l58.80359 34.02716" fill-rule="evenodd"></path><path fill="#000000" stroke="#000000" stroke-width="2.0" stroke-linecap="butt" d="m822.36633 226.80182l9.510315 1.6865387l-6.201233 -7.405075z" fill-rule="evenodd"></path><path fill="#000000" fill-opacity="0.0" d="m835.0057 228.48047l40.374817 89.524994" fill-rule="nonzero"></path><path stroke="#000000" stroke-width="2.0" stroke-linejoin="round" stroke-linecap="butt" d="m835.0057 228.48045l35.441406 78.58601" fill-rule="evenodd"></path><path fill="#000000" stroke="#000000" stroke-width="2.0" stroke-linecap="butt" d="m867.4357 308.42456l6.742737 6.915619l-0.7199707 -9.631805z" fill-rule="evenodd"></path><path fill="#ff0000" d="m661.7619 138.62506l0 0c-1.9688721 1.7708282 -2.053833 4.8968964 -0.18981934 6.9822693l0 0c0.8951416 1.0014496 2.1292114 1.624054 3.430725 1.7308655c1.3015137 0.10681152 2.5638428 -0.31092834 3.5093384 -1.1613007l0 0c1.9688721 -1.7708282 2.053894 -4.8968964 0.18988037 -6.9822845l0 0c-1.8640137 -2.085373 -4.9711914 -2.3403778 -6.9401245 -0.56954956z" fill-rule="nonzero"></path><path stroke="#000000" stroke-width="1.0" stroke-linejoin="round" stroke-linecap="butt" d="m661.7619 138.62506l0 0c-1.9688721 1.7708282 -2.053833 4.8968964 -0.18981934 6.9822693l0 0c0.8951416 1.0014496 2.1292114 1.624054 3.430725 1.7308655c1.3015137 0.10681152 2.5638428 -0.31092834 3.5093384 -1.1613007l0 0c1.9688721 -1.7708282 2.053894 -4.8968964 0.18988037 -6.9822845l0 0c-1.8640137 -2.085373 -4.9711914 -2.3403778 -6.9401245 -0.56954956z" fill-rule="nonzero"></path><path fill="#000000" fill-opacity="0.0" d="m664.159 193.95702l0.84381104 -46.61882" fill-rule="nonzero"></path><path stroke="#3d85c6" stroke-width="1.0" stroke-linejoin="round" stroke-linecap="butt" stroke-dasharray="4.0,3.0" d="m664.159 193.95702l0.84381104 -46.61882" fill-rule="nonzero"></path><path fill="#000000" fill-opacity="0.0" d="m764.5428 186.85895l0.8015747 -134.66722" fill-rule="nonzero"></path><path stroke="#3d85c6" stroke-width="1.0" stroke-linejoin="round" stroke-linecap="butt" stroke-dasharray="4.0,3.0" d="m764.5428 186.85895l0.8015747 -134.66722" fill-rule="nonzero"></path><path fill="#000000" fill-opacity="0.0" d="m670.88525 142.88564l94.46112 -0.29533386" fill-rule="nonzero"></path><path stroke="#3d85c6" stroke-width="1.0" stroke-linejoin="round" stroke-linecap="butt" stroke-dasharray="4.0,3.0" d="m670.88525 142.88564l94.46112 -0.29533386" fill-rule="nonzero"></path><path fill="#00ff00" d="m759.7247 142.74324l0 0c0 2.6445923 2.276062 4.788452 5.0838013 4.788452l0 0c1.3482666 0 2.6413574 -0.50450134 3.5947266 -1.4025116c0.9534302 -0.897995 1.4890137 -2.1159668 1.4890137 -3.3859406l0 0c0 -2.644577 -2.276062 -4.788452 -5.08374 -4.788452l0 0c-2.8077393 0 -5.0838013 2.1438751 -5.0838013 4.788452z" fill-rule="nonzero"></path><path stroke="#000000" stroke-width="1.0" stroke-linejoin="round" stroke-linecap="butt" d="m759.7247 142.74324l0 0c0 2.6445923 2.276062 4.788452 5.0838013 4.788452l0 0c1.3482666 0 2.6413574 -0.50450134 3.5947266 -1.4025116c0.9534302 -0.897995 1.4890137 -2.1159668 1.4890137 -3.3859406l0 0c0 -2.644577 -2.276062 -4.788452 -5.08374 -4.788452l0 0c-2.8077393 0 -5.0838013 2.1438751 -5.0838013 4.788452z" fill-rule="nonzero"></path><path fill="#000000" fill-opacity="0.0" d="m665.9709 189.16866l104.29114 -0.59065247" fill-rule="nonzero"></path><path stroke="#b7b7b7" stroke-width="2.0" stroke-linejoin="round" stroke-linecap="butt" d="m665.9709 189.16866l92.29132 -0.5227051" fill-rule="evenodd"></path><path fill="#b7b7b7" stroke="#b7b7b7" stroke-width="2.0" stroke-linecap="butt" d="m758.28094 191.94937l9.057373 -3.3548126l-9.094788 -3.2520142z" fill-rule="evenodd"></path><path fill="#000000" fill-opacity="0.0" d="m534.77856 554.9918l88.81445 -58.9942" fill-rule="nonzero"></path><path stroke="#000000" stroke-width="2.0" stroke-linejoin="round" stroke-linecap="butt" d="m534.77856 554.9918l78.818726 -52.354614" fill-rule="evenodd"></path><path fill="#000000" stroke="#000000" stroke-width="2.0" stroke-linecap="butt" d="m615.42505 505.38895l5.732544 -7.77359l-9.388123 2.2701416z" fill-rule="evenodd"></path><path fill="#000000" fill-opacity="0.0" d="m622.10645 496.20947l81.66107 -1.4220581" fill-rule="nonzero"></path><path stroke="#b7b7b7" stroke-width="2.0" stroke-linejoin="round" stroke-linecap="butt" d="m622.10645 496.20947l69.6629 -1.2131348" fill-rule="evenodd"></path><path fill="#b7b7b7" stroke="#b7b7b7" stroke-width="2.0" stroke-linecap="butt" d="m691.8269 498.29932l9.017273 -3.4609985l-9.132324 -3.144928z" fill-rule="evenodd"></path><path fill="#000000" fill-opacity="0.0" d="m703.4945 493.20773l82.43677 57.011932" fill-rule="nonzero"></path><path stroke="#000000" stroke-width="2.0" stroke-linejoin="round" stroke-linecap="butt" d="m703.4945 493.20773l72.56708 50.186188" fill-rule="evenodd"></path><path fill="#000000" stroke="#000000" stroke-width="2.0" stroke-linecap="butt" d="m774.18256 546.11096l9.343994 2.4456177l-5.5858765 -7.8796387z" fill-rule="evenodd"></path><path fill="#ff0000" d="m504.5853 505.81284l0 0c-0.8091736 2.5822754 0.743927 5.360504 3.4689941 6.205414l0 0c1.3086243 0.40570068 2.717987 0.30218506 3.9180908 -0.28775024c1.2001038 -0.5899353 2.0926208 -1.6180115 2.4812317 -2.8580627l0 0c0.80914307 -2.5822449 -0.7439575 -5.3604736 -3.4689941 -6.2053833l0 0c-2.7250671 -0.84487915 -5.5901184 0.5635376 -6.3993225 3.1457825z" fill-rule="nonzero"></path><path stroke="#000000" stroke-width="1.0" stroke-linejoin="round" stroke-linecap="butt" d="m504.5853 505.81284l0 0c-0.8091736 2.5822754 0.743927 5.360504 3.4689941 6.205414l0 0c1.3086243 0.40570068 2.717987 0.30218506 3.9180908 -0.28775024c1.2001038 -0.5899353 2.0926208 -1.6180115 2.4812317 -2.8580627l0 0c0.80914307 -2.5822449 -0.7439575 -5.3604736 -3.4689941 -6.2053833l0 0c-2.7250671 -0.84487915 -5.5901184 0.5635376 -6.3993225 3.1457825z" fill-rule="nonzero"></path><path fill="#000000" fill-opacity="0.0" d="m535.8028 552.92737l-23.830414 -41.19687" fill-rule="nonzero"></path><path stroke="#3d85c6" stroke-width="1.0" stroke-linejoin="round" stroke-linecap="butt" stroke-dasharray="4.0,3.0" d="m535.8028 552.92737l-23.830414 -41.19687" fill-rule="nonzero"></path><path fill="#000000" fill-opacity="0.0" d="m619.9064 493.88977l-70.241455 -118.33313" fill-rule="nonzero"></path><path stroke="#3d85c6" stroke-width="1.0" stroke-linejoin="round" stroke-linecap="butt" stroke-dasharray="4.0,3.0" d="m619.9064 493.88977l-70.241455 -118.33313" fill-rule="nonzero"></path><path fill="#000000" fill-opacity="0.0" d="m514.77997 504.72888l82.56604 -50.117065" fill-rule="nonzero"></path><path stroke="#3d85c6" stroke-width="1.0" stroke-linejoin="round" stroke-linecap="butt" stroke-dasharray="4.0,3.0" d="m514.77997 504.72888l82.56604 -50.117065" fill-rule="nonzero"></path><path fill="#00ff00" d="m592.4573 457.80682l0 0c1.392273 2.3204346 4.5081787 3.005371 6.9595337 1.5297852l0 0c1.177185 -0.70858765 2.0405273 -1.8308411 2.4001465 -3.119812c0.35961914 -1.2890015 0.18603516 -2.6391907 -0.48254395 -3.7535095l0 0c-1.392273 -2.320465 -4.5081177 -3.005371 -6.9594727 -1.5297852l0 0c-2.451355 1.4755554 -3.3099365 4.5528564 -1.9176636 6.8733215z" fill-rule="nonzero"></path><path stroke="#000000" stroke-width="1.0" stroke-linejoin="round" stroke-linecap="butt" d="m592.4573 457.80682l0 0c1.392273 2.3204346 4.5081787 3.005371 6.9595337 1.5297852l0 0c1.177185 -0.70858765 2.0405273 -1.8308411 2.4001465 -3.119812c0.35961914 -1.2890015 0.18603516 -2.6391907 -0.48254395 -3.7535095l0 0c-1.392273 -2.320465 -4.5081177 -3.005371 -6.9594727 -1.5297852l0 0c-2.451355 1.4755554 -3.3099365 4.5528564 -1.9176636 6.8733215z" fill-rule="nonzero"></path><path fill="#000000" fill-opacity="0.0" d="m599.62634 454.61182l99.58771 -3.4905396" fill-rule="nonzero"></path><path stroke="#3d85c6" stroke-width="1.0" stroke-linejoin="round" stroke-linecap="butt" stroke-dasharray="4.0,3.0" d="m599.62634 454.61182l99.58771 -3.4905396" fill-rule="nonzero"></path><path fill="#000000" fill-opacity="0.0" d="m701.4944 491.7579l-4.9987793 -152.85056" fill-rule="nonzero"></path><path stroke="#3d85c6" stroke-width="1.0" stroke-linejoin="round" stroke-linecap="butt" stroke-dasharray="4.0,3.0" d="m701.4944 491.7579l-4.9987793 -152.85056" fill-rule="nonzero"></path><path fill="#9900ff" d="m695.07227 453.7022l0 0c1.392273 2.320465 4.5081787 3.005371 6.9595337 1.5298157l0 0c1.177185 -0.70861816 2.0405273 -1.8308411 2.4001465 -3.1198425c0.35961914 -1.2890015 0.18609619 -2.6391602 -0.48254395 -3.753479l0 0c-1.392273 -2.320465 -4.5081177 -3.005371 -6.9594727 -1.5298157l0 0c-2.451355 1.4755859 -3.3099365 4.5528564 -1.9176636 6.8733215z" fill-rule="nonzero"></path><path stroke="#000000" stroke-width="1.0" stroke-linejoin="round" stroke-linecap="butt" d="m695.07227 453.7022l0 0c1.392273 2.320465 4.5081787 3.005371 6.9595337 1.5298157l0 0c1.177185 -0.70861816 2.0405273 -1.8308411 2.4001465 -3.1198425c0.35961914 -1.2890015 0.18609619 -2.6391602 -0.48254395 -3.753479l0 0c-1.392273 -2.320465 -4.5081177 -3.005371 -6.9594727 -1.5298157l0 0c-2.451355 1.4755859 -3.3099365 4.5528564 -1.9176636 6.8733215z" fill-rule="nonzero"></path><path fill="#000000" fill-opacity="0.0" d="m184.0 273.0l101.98425 0l0 24.0l-101.98425 0z" fill-rule="nonzero"></path><path fill="#000000" d="m194.46875 299.91998l0 -13.59375l5.125 0q1.359375 0 2.078125 0.125q1.0 0.171875 1.671875 0.640625q0.671875 0.46875 1.078125 1.3125q0.421875 0.84375 0.421875 1.84375q0 1.734375 -1.109375 2.9375q-1.09375 1.203125 -3.984375 1.203125l-3.484375 0l0 5.53125l-1.796875 0zm1.796875 -7.140625l3.515625 0q1.75 0 2.46875 -0.640625q0.734375 -0.65625 0.734375 -1.828125q0 -0.859375 -0.4375 -1.46875q-0.421875 -0.609375 -1.125 -0.796875q-0.453125 -0.125 -1.671875 -0.125l-3.484375 0l0 4.859375zm10.427948 7.140625l0 -13.59375l1.671875 0l0 4.875q1.171875 -1.359375 2.953125 -1.359375q1.09375 0 1.890625 0.4375q0.8125 0.421875 1.15625 1.1875q0.359375 0.765625 0.359375 2.203125l0 6.25l-1.671875 0l0 -6.25q0 -1.25 -0.546875 -1.8125q-0.546875 -0.578125 -1.53125 -0.578125q-0.75 0 -1.40625 0.390625q-0.640625 0.375 -0.921875 1.046875q-0.28125 0.65625 -0.28125 1.8125l0 5.390625l-1.671875 0zm16.813217 -1.21875q-0.9375 0.796875 -1.796875 1.125q-0.859375 0.3125 -1.84375 0.3125q-1.609375 0 -2.484375 -0.78125q-0.875 -0.796875 -0.875 -2.03125q0 -0.734375 0.328125 -1.328125q0.328125 -0.59375 0.859375 -0.953125q0.53125 -0.359375 1.203125 -0.546875q0.5 -0.140625 1.484375 -0.25q2.03125 -0.25 2.984375 -0.578125q0 -0.34375 0 -0.4375q0 -1.015625 -0.46875 -1.4375q-0.640625 -0.5625 -1.90625 -0.5625q-1.171875 0 -1.734375 0.40625q-0.5625 0.40625 -0.828125 1.46875l-1.640625 -0.234375q0.234375 -1.046875 0.734375 -1.6875q0.515625 -0.640625 1.46875 -0.984375q0.96875 -0.359375 2.25 -0.359375q1.265625 0 2.046875 0.296875q0.78125 0.296875 1.15625 0.75q0.375 0.453125 0.515625 1.140625q0.09375 0.421875 0.09375 1.53125l0 2.234375q0 2.328125 0.09375 2.953125q0.109375 0.609375 0.4375 1.171875l-1.75 0q-0.265625 -0.515625 -0.328125 -1.21875zm-0.140625 -3.71875q-0.90625 0.359375 -2.734375 0.625q-1.03125 0.140625 -1.453125 0.328125q-0.421875 0.1875 -0.65625 0.546875q-0.234375 0.359375 -0.234375 0.796875q0 0.671875 0.5 1.125q0.515625 0.4375 1.484375 0.4375q0.96875 0 1.71875 -0.421875q0.75 -0.4375 1.109375 -1.15625q0.265625 -0.578125 0.265625 -1.671875l0 -0.609375zm3.4069672 2.0l1.65625 -0.265625q0.140625 1.0 0.765625 1.53125q0.640625 0.515625 1.78125 0.515625q1.15625 0 1.703125 -0.46875q0.5625 -0.46875 0.5625 -1.09375q0 -0.5625 -0.484375 -0.890625q-0.34375 -0.21875 -1.703125 -0.5625q-1.84375 -0.46875 -2.5625 -0.796875q-0.703125 -0.34375 -1.078125 -0.9375q-0.359375 -0.609375 -0.359375 -1.328125q0 -0.65625 0.296875 -1.21875q0.3125 -0.5625 0.828125 -0.9375q0.390625 -0.28125 1.0625 -0.484375q0.671875 -0.203125 1.4375 -0.203125q1.171875 0 2.046875 0.34375q0.875 0.328125 1.28125 0.90625q0.421875 0.5625 0.578125 1.515625l-1.625 0.21875q-0.109375 -0.75 -0.65625 -1.171875q-0.53125 -0.4375 -1.5 -0.4375q-1.15625 0 -1.640625 0.390625q-0.484375 0.375 -0.484375 0.875q0 0.328125 0.203125 0.59375q0.203125 0.265625 0.640625 0.4375q0.25 0.09375 1.46875 0.4375q1.765625 0.46875 2.46875 0.765625q0.703125 0.296875 1.09375 0.875q0.40625 0.578125 0.40625 1.4375q0 0.828125 -0.484375 1.578125q-0.484375 0.734375 -1.40625 1.140625q-0.921875 0.390625 -2.078125 0.390625q-1.921875 0 -2.9375 -0.796875q-1.0 -0.796875 -1.28125 -2.359375zm16.75 -0.234375l1.71875 0.21875q-0.40625 1.5 -1.515625 2.34375q-1.09375 0.828125 -2.8125 0.828125q-2.15625 0 -3.421875 -1.328125q-1.265625 -1.328125 -1.265625 -3.734375q0 -2.484375 1.265625 -3.859375q1.28125 -1.375 3.328125 -1.375q1.984375 0 3.234375 1.34375q1.25 1.34375 1.25 3.796875q0 0.140625 -0.015625 0.4375l-7.34375 0q0.09375 1.625 0.921875 2.484375q0.828125 0.859375 2.0625 0.859375q0.90625 0 1.546875 -0.46875q0.65625 -0.484375 1.046875 -1.546875zm-5.484375 -2.703125l5.5 0q-0.109375 -1.234375 -0.625 -1.859375q-0.796875 -0.96875 -2.078125 -0.96875q-1.140625 0 -1.9375 0.78125q-0.78125 0.765625 -0.859375 2.046875zm20.121521 5.875l-1.671875 0l0 -10.640625q-0.59375 0.578125 -1.578125 1.15625q-0.984375 0.5625 -1.765625 0.859375l0 -1.625q1.40625 -0.65625 2.453125 -1.59375q1.046875 -0.9375 1.484375 -1.8125l1.078125 0l0 13.65625z" fill-rule="nonzero"></path><path fill="#000000" fill-opacity="0.0" d="m442.0 273.0l101.98425 0l0 44.97638l-101.98425 0z" fill-rule="nonzero"></path><path fill="#000000" d="m452.46875 299.91998l0 -13.59375l5.125 0q1.359375 0 2.078125 0.125q1.0 0.171875 1.671875 0.640625q0.671875 0.46875 1.078125 1.3125q0.421875 0.84375 0.421875 1.84375q0 1.734375 -1.109375 2.9375q-1.09375 1.203125 -3.984375 1.203125l-3.484375 0l0 5.53125l-1.796875 0zm1.796875 -7.140625l3.515625 0q1.75 0 2.46875 -0.640625q0.734375 -0.65625 0.734375 -1.828125q0 -0.859375 -0.4375 -1.46875q-0.421875 -0.609375 -1.125 -0.796875q-0.453125 -0.125 -1.671875 -0.125l-3.484375 0l0 4.859375zm10.427948 7.140625l0 -13.59375l1.671875 0l0 4.875q1.171875 -1.359375 2.953125 -1.359375q1.09375 0 1.890625 0.4375q0.8125 0.421875 1.15625 1.1875q0.359375 0.765625 0.359375 2.203125l0 6.25l-1.671875 0l0 -6.25q0 -1.25 -0.546875 -1.8125q-0.546875 -0.578125 -1.53125 -0.578125q-0.75 0 -1.40625 0.390625q-0.640625 0.375 -0.921875 1.046875q-0.28125 0.65625 -0.28125 1.8125l0 5.390625l-1.671875 0zm16.813202 -1.21875q-0.9375 0.796875 -1.796875 1.125q-0.859375 0.3125 -1.84375 0.3125q-1.609375 0 -2.484375 -0.78125q-0.875 -0.796875 -0.875 -2.03125q0 -0.734375 0.328125 -1.328125q0.328125 -0.59375 0.859375 -0.953125q0.53125 -0.359375 1.203125 -0.546875q0.5 -0.140625 1.484375 -0.25q2.03125 -0.25 2.984375 -0.578125q0 -0.34375 0 -0.4375q0 -1.015625 -0.46875 -1.4375q-0.640625 -0.5625 -1.90625 -0.5625q-1.171875 0 -1.734375 0.40625q-0.5625 0.40625 -0.828125 1.46875l-1.640625 -0.234375q0.234375 -1.046875 0.734375 -1.6875q0.515625 -0.640625 1.46875 -0.984375q0.96875 -0.359375 2.25 -0.359375q1.265625 0 2.046875 0.296875q0.78125 0.296875 1.15625 0.75q0.375 0.453125 0.515625 1.140625q0.09375 0.421875 0.09375 1.53125l0 2.234375q0 2.328125 0.09375 2.953125q0.109375 0.609375 0.4375 1.171875l-1.75 0q-0.265625 -0.515625 -0.328125 -1.21875zm-0.140625 -3.71875q-0.90625 0.359375 -2.734375 0.625q-1.03125 0.140625 -1.453125 0.328125q-0.421875 0.1875 -0.65625 0.546875q-0.234375 0.359375 -0.234375 0.796875q0 0.671875 0.5 1.125q0.515625 0.4375 1.484375 0.4375q0.96875 0 1.71875 -0.421875q0.75 -0.4375 1.109375 -1.15625q0.265625 -0.578125 0.265625 -1.671875l0 -0.609375zm3.4069824 2.0l1.65625 -0.265625q0.140625 1.0 0.765625 1.53125q0.640625 0.515625 1.78125 0.515625q1.15625 0 1.703125 -0.46875q0.5625 -0.46875 0.5625 -1.09375q0 -0.5625 -0.484375 -0.890625q-0.34375 -0.21875 -1.703125 -0.5625q-1.84375 -0.46875 -2.5625 -0.796875q-0.703125 -0.34375 -1.078125 -0.9375q-0.359375 -0.609375 -0.359375 -1.328125q0 -0.65625 0.296875 -1.21875q0.3125 -0.5625 0.828125 -0.9375q0.390625 -0.28125 1.0625 -0.484375q0.671875 -0.203125 1.4375 -0.203125q1.171875 0 2.046875 0.34375q0.875 0.328125 1.28125 0.90625q0.421875 0.5625 0.578125 1.515625l-1.625 0.21875q-0.109375 -0.75 -0.65625 -1.171875q-0.53125 -0.4375 -1.5 -0.4375q-1.15625 0 -1.640625 0.390625q-0.484375 0.375 -0.484375 0.875q0 0.328125 0.203125 0.59375q0.203125 0.265625 0.640625 0.4375q0.25 0.09375 1.46875 0.4375q1.765625 0.46875 2.46875 0.765625q0.703125 0.296875 1.09375 0.875q0.40625 0.578125 0.40625 1.4375q0 0.828125 -0.484375 1.578125q-0.484375 0.734375 -1.40625 1.140625q-0.921875 0.390625 -2.078125 0.390625q-1.921875 0 -2.9375 -0.796875q-1.0 -0.796875 -1.28125 -2.359375zm16.75 -0.234375l1.71875 0.21875q-0.40625 1.5 -1.515625 2.34375q-1.09375 0.828125 -2.8125 0.828125q-2.15625 0 -3.421875 -1.328125q-1.265625 -1.328125 -1.265625 -3.734375q0 -2.484375 1.265625 -3.859375q1.28125 -1.375 3.328125 -1.375q1.984375 0 3.234375 1.34375q1.25 1.34375 1.25 3.796875q0 0.140625 -0.015625 0.4375l-7.34375 0q0.09375 1.625 0.921875 2.484375q0.828125 0.859375 2.0625 0.859375q0.90625 0 1.546875 -0.46875q0.65625 -0.484375 1.046875 -1.546875zm-5.484375 -2.703125l5.5 0q-0.109375 -1.234375 -0.625 -1.859375q-0.796875 -0.96875 -2.078125 -0.96875q-1.140625 0 -1.9375 0.78125q-0.78125 0.765625 -0.859375 2.046875zm22.605896 4.265625l0 1.609375l-8.984375 0q-0.015625 -0.609375 0.1875 -1.15625q0.34375 -0.921875 1.09375 -1.8125q0.765625 -0.890625 2.1875 -2.0625q2.21875 -1.8125 3.0 -2.875q0.78125 -1.0625 0.78125 -2.015625q0 -0.984375 -0.71875 -1.671875q-0.703125 -0.6875 -1.84375 -0.6875q-1.203125 0 -1.9375 0.734375q-0.71875 0.71875 -0.71875 2.0l-1.71875 -0.171875q0.171875 -1.921875 1.328125 -2.921875q1.15625 -1.015625 3.09375 -1.015625q1.953125 0 3.09375 1.09375q1.140625 1.078125 1.140625 2.6875q0 0.8125 -0.34375 1.609375q-0.328125 0.78125 -1.109375 1.65625q-0.765625 0.859375 -2.5625 2.390625q-1.5 1.265625 -1.9375 1.71875q-0.421875 0.4375 -0.703125 0.890625l6.671875 0z" fill-rule="nonzero"></path><path fill="#000000" fill-opacity="0.0" d="m717.0 273.0l101.98425 0l0 44.97638l-101.98425 0z" fill-rule="nonzero"></path><path fill="#000000" d="m727.46875 299.91998l0 -13.59375l5.125 0q1.359375 0 2.078125 0.125q1.0 0.171875 1.671875 0.640625q0.671875 0.46875 1.078125 1.3125q0.421875 0.84375 0.421875 1.84375q0 1.734375 -1.109375 2.9375q-1.09375 1.203125 -3.984375 1.203125l-3.484375 0l0 5.53125l-1.796875 0zm1.796875 -7.140625l3.515625 0q1.75 0 2.46875 -0.640625q0.734375 -0.65625 0.734375 -1.828125q0 -0.859375 -0.4375 -1.46875q-0.421875 -0.609375 -1.125 -0.796875q-0.453125 -0.125 -1.671875 -0.125l-3.484375 0l0 4.859375zm10.4279785 7.140625l0 -13.59375l1.671875 0l0 4.875q1.171875 -1.359375 2.953125 -1.359375q1.09375 0 1.890625 0.4375q0.8125 0.421875 1.15625 1.1875q0.359375 0.765625 0.359375 2.203125l0 6.25l-1.671875 0l0 -6.25q0 -1.25 -0.546875 -1.8125q-0.546875 -0.578125 -1.53125 -0.578125q-0.75 0 -1.40625 0.390625q-0.640625 0.375 -0.921875 1.046875q-0.28125 0.65625 -0.28125 1.8125l0 5.390625l-1.671875 0zm16.813171 -1.21875q-0.9375 0.796875 -1.796875 1.125q-0.859375 0.3125 -1.84375 0.3125q-1.609375 0 -2.484375 -0.78125q-0.875 -0.796875 -0.875 -2.03125q0 -0.734375 0.328125 -1.328125q0.328125 -0.59375 0.859375 -0.953125q0.53125 -0.359375 1.203125 -0.546875q0.5 -0.140625 1.484375 -0.25q2.03125 -0.25 2.984375 -0.578125q0 -0.34375 0 -0.4375q0 -1.015625 -0.46875 -1.4375q-0.640625 -0.5625 -1.90625 -0.5625q-1.171875 0 -1.734375 0.40625q-0.5625 0.40625 -0.828125 1.46875l-1.640625 -0.234375q0.234375 -1.046875 0.734375 -1.6875q0.515625 -0.640625 1.46875 -0.984375q0.96875 -0.359375 2.25 -0.359375q1.265625 0 2.046875 0.296875q0.78125 0.296875 1.15625 0.75q0.375 0.453125 0.515625 1.140625q0.09375 0.421875 0.09375 1.53125l0 2.234375q0 2.328125 0.09375 2.953125q0.109375 0.609375 0.4375 1.171875l-1.75 0q-0.265625 -0.515625 -0.328125 -1.21875zm-0.140625 -3.71875q-0.90625 0.359375 -2.734375 0.625q-1.03125 0.140625 -1.453125 0.328125q-0.421875 0.1875 -0.65625 0.546875q-0.234375 0.359375 -0.234375 0.796875q0 0.671875 0.5 1.125q0.515625 0.4375 1.484375 0.4375q0.96875 0 1.71875 -0.421875q0.75 -0.4375 1.109375 -1.15625q0.265625 -0.578125 0.265625 -1.671875l0 -0.609375zm3.4069824 2.0l1.65625 -0.265625q0.140625 1.0 0.765625 1.53125q0.640625 0.515625 1.78125 0.515625q1.15625 0 1.703125 -0.46875q0.5625 -0.46875 0.5625 -1.09375q0 -0.5625 -0.484375 -0.890625q-0.34375 -0.21875 -1.703125 -0.5625q-1.84375 -0.46875 -2.5625 -0.796875q-0.703125 -0.34375 -1.078125 -0.9375q-0.359375 -0.609375 -0.359375 -1.328125q0 -0.65625 0.296875 -1.21875q0.3125 -0.5625 0.828125 -0.9375q0.390625 -0.28125 1.0625 -0.484375q0.671875 -0.203125 1.4375 -0.203125q1.171875 0 2.046875 0.34375q0.875 0.328125 1.28125 0.90625q0.421875 0.5625 0.578125 1.515625l-1.625 0.21875q-0.109375 -0.75 -0.65625 -1.171875q-0.53125 -0.4375 -1.5 -0.4375q-1.15625 0 -1.640625 0.390625q-0.484375 0.375 -0.484375 0.875q0 0.328125 0.203125 0.59375q0.203125 0.265625 0.640625 0.4375q0.25 0.09375 1.46875 0.4375q1.765625 0.46875 2.46875 0.765625q0.703125 0.296875 1.09375 0.875q0.40625 0.578125 0.40625 1.4375q0 0.828125 -0.484375 1.578125q-0.484375 0.734375 -1.40625 1.140625q-0.921875 0.390625 -2.078125 0.390625q-1.921875 0 -2.9375 -0.796875q-1.0 -0.796875 -1.28125 -2.359375zm16.75 -0.234375l1.71875 0.21875q-0.40625 1.5 -1.515625 2.34375q-1.09375 0.828125 -2.8125 0.828125q-2.15625 0 -3.421875 -1.328125q-1.265625 -1.328125 -1.265625 -3.734375q0 -2.484375 1.265625 -3.859375q1.28125 -1.375 3.328125 -1.375q1.984375 0 3.234375 1.34375q1.25 1.34375 1.25 3.796875q0 0.140625 -0.015625 0.4375l-7.34375 0q0.09375 1.625 0.921875 2.484375q0.828125 0.859375 2.0625 0.859375q0.90625 0 1.546875 -0.46875q0.65625 -0.484375 1.046875 -1.546875zm-5.484375 -2.703125l5.5 0q-0.109375 -1.234375 -0.625 -1.859375q-0.796875 -0.96875 -2.078125 -0.96875q-1.140625 0 -1.9375 0.78125q-0.78125 0.765625 -0.859375 2.046875zm13.840271 2.28125l1.671875 -0.21875q0.28125 1.421875 0.96875 2.046875q0.703125 0.625 1.6875 0.625q1.1875 0 2.0 -0.8125q0.8125 -0.828125 0.8125 -2.03125q0 -1.140625 -0.765625 -1.890625q-0.75 -0.75 -1.90625 -0.75q-0.46875 0 -1.171875 0.1875l0.1875 -1.46875q0.15625 0.015625 0.265625 0.015625q1.0625 0 1.90625 -0.546875q0.859375 -0.5625 0.859375 -1.71875q0 -0.921875 -0.625 -1.515625q-0.609375 -0.609375 -1.59375 -0.609375q-0.96875 0 -1.625 0.609375q-0.640625 0.609375 -0.828125 1.84375l-1.671875 -0.296875q0.296875 -1.6875 1.375 -2.609375q1.09375 -0.921875 2.71875 -0.921875q1.109375 0 2.046875 0.484375q0.9375 0.46875 1.421875 1.296875q0.5 0.828125 0.5 1.75q0 0.890625 -0.46875 1.609375q-0.46875 0.71875 -1.40625 1.15625q1.21875 0.265625 1.875 1.15625q0.671875 0.875 0.671875 2.1875q0 1.78125 -1.296875 3.015625q-1.296875 1.234375 -3.28125 1.234375q-1.796875 0 -2.984375 -1.0625q-1.171875 -1.0625 -1.34375 -2.765625z" fill-rule="nonzero"></path><path fill="#000000" fill-opacity="0.0" d="m289.84778 552.0l101.98425 0l0 44.97638l-101.98425 0z" fill-rule="nonzero"></path><path fill="#000000" d="m300.31653 578.92l0 -13.59375l5.125 0q1.359375 0 2.078125 0.125q1.0 0.171875 1.671875 0.640625q0.671875 0.46875 1.078125 1.3125q0.421875 0.84375 0.421875 1.84375q0 1.734375 -1.109375 2.9375q-1.09375 1.203125 -3.984375 1.203125l-3.484375 0l0 5.53125l-1.796875 0zm1.796875 -7.140625l3.515625 0q1.75 0 2.46875 -0.640625q0.734375 -0.65625 0.734375 -1.828125q0 -0.859375 -0.4375 -1.46875q-0.421875 -0.609375 -1.125 -0.796875q-0.453125 -0.125 -1.671875 -0.125l-3.484375 0l0 4.859375zm10.427948 7.140625l0 -13.59375l1.671875 0l0 4.875q1.171875 -1.359375 2.953125 -1.359375q1.09375 0 1.890625 0.4375q0.8125 0.421875 1.15625 1.1875q0.359375 0.765625 0.359375 2.203125l0 6.25l-1.671875 0l0 -6.25q0 -1.25 -0.546875 -1.8125q-0.546875 -0.578125 -1.53125 -0.578125q-0.75 0 -1.40625 0.390625q-0.640625 0.375 -0.921875 1.046875q-0.28125 0.65625 -0.28125 1.8125l0 5.390625l-1.671875 0zm16.813202 -1.21875q-0.9375 0.796875 -1.796875 1.125q-0.859375 0.3125 -1.84375 0.3125q-1.609375 0 -2.484375 -0.78125q-0.875 -0.796875 -0.875 -2.03125q0 -0.734375 0.328125 -1.328125q0.328125 -0.59375 0.859375 -0.953125q0.53125 -0.359375 1.203125 -0.546875q0.5 -0.140625 1.484375 -0.25q2.03125 -0.25 2.984375 -0.578125q0 -0.34375 0 -0.4375q0 -1.015625 -0.46875 -1.4375q-0.640625 -0.5625 -1.90625 -0.5625q-1.171875 0 -1.734375 0.40625q-0.5625 0.40625 -0.828125 1.46875l-1.640625 -0.234375q0.234375 -1.046875 0.734375 -1.6875q0.515625 -0.640625 1.46875 -0.984375q0.96875 -0.359375 2.25 -0.359375q1.265625 0 2.046875 0.296875q0.78125 0.296875 1.15625 0.75q0.375 0.453125 0.515625 1.140625q0.09375 0.421875 0.09375 1.53125l0 2.234375q0 2.328125 0.09375 2.953125q0.109375 0.609375 0.4375 1.171875l-1.75 0q-0.265625 -0.515625 -0.328125 -1.21875zm-0.140625 -3.71875q-0.90625 0.359375 -2.734375 0.625q-1.03125 0.140625 -1.453125 0.328125q-0.421875 0.1875 -0.65625 0.546875q-0.234375 0.359375 -0.234375 0.796875q0 0.671875 0.5 1.125q0.515625 0.4375 1.484375 0.4375q0.96875 0 1.71875 -0.421875q0.75 -0.4375 1.109375 -1.15625q0.265625 -0.578125 0.265625 -1.671875l0 -0.609375zm3.4069824 2.0l1.65625 -0.265625q0.140625 1.0 0.765625 1.53125q0.640625 0.515625 1.78125 0.515625q1.15625 0 1.703125 -0.46875q0.5625 -0.46875 0.5625 -1.09375q0 -0.5625 -0.484375 -0.890625q-0.34375 -0.21875 -1.703125 -0.5625q-1.84375 -0.46875 -2.5625 -0.796875q-0.703125 -0.34375 -1.078125 -0.9375q-0.359375 -0.609375 -0.359375 -1.328125q0 -0.65625 0.296875 -1.21875q0.3125 -0.5625 0.828125 -0.9375q0.390625 -0.28125 1.0625 -0.484375q0.671875 -0.203125 1.4375 -0.203125q1.171875 0 2.046875 0.34375q0.875 0.328125 1.28125 0.90625q0.421875 0.5625 0.578125 1.515625l-1.625 0.21875q-0.109375 -0.75 -0.65625 -1.171875q-0.53125 -0.4375 -1.5 -0.4375q-1.15625 0 -1.640625 0.390625q-0.484375 0.375 -0.484375 0.875q0 0.328125 0.203125 0.59375q0.203125 0.265625 0.640625 0.4375q0.25 0.09375 1.46875 0.4375q1.765625 0.46875 2.46875 0.765625q0.703125 0.296875 1.09375 0.875q0.40625 0.578125 0.40625 1.4375q0 0.828125 -0.484375 1.578125q-0.484375 0.734375 -1.40625 1.140625q-0.921875 0.390625 -2.078125 0.390625q-1.921875 0 -2.9375 -0.796875q-1.0 -0.796875 -1.28125 -2.359375zm16.75 -0.234375l1.71875 0.21875q-0.40625 1.5 -1.515625 2.34375q-1.09375 0.828125 -2.8125 0.828125q-2.15625 0 -3.421875 -1.328125q-1.265625 -1.328125 -1.265625 -3.734375q0 -2.484375 1.265625 -3.859375q1.28125 -1.375 3.328125 -1.375q1.984375 0 3.234375 1.34375q1.25 1.34375 1.25 3.796875q0 0.140625 -0.015625 0.4375l-7.34375 0q0.09375 1.625 0.921875 2.484375q0.828125 0.859375 2.0625 0.859375q0.90625 0 1.546875 -0.46875q0.65625 -0.484375 1.046875 -1.546875zm-5.484375 -2.703125l5.5 0q-0.109375 -1.234375 -0.625 -1.859375q-0.796875 -0.96875 -2.078125 -0.96875q-1.140625 0 -1.9375 0.78125q-0.78125 0.765625 -0.859375 2.046875zm19.184021 5.875l0 -3.25l-5.90625 0l0 -1.53125l6.21875 -8.8125l1.359375 0l0 8.8125l1.84375 0l0 1.53125l-1.84375 0l0 3.25l-1.671875 0zm0 -4.78125l0 -6.140625l-4.25 6.140625l4.25 0z" fill-rule="nonzero"></path><path fill="#000000" fill-opacity="0.0" d="m602.68506 552.0l101.98425 0l0 44.97638l-101.98425 0z" fill-rule="nonzero"></path><path fill="#000000" d="m613.1538 578.92l0 -13.59375l5.125 0q1.359375 0 2.078125 0.125q1.0 0.171875 1.671875 0.640625q0.671875 0.46875 1.078125 1.3125q0.421875 0.84375 0.421875 1.84375q0 1.734375 -1.109375 2.9375q-1.09375 1.203125 -3.984375 1.203125l-3.484375 0l0 5.53125l-1.796875 0zm1.796875 -7.140625l3.515625 0q1.75 0 2.46875 -0.640625q0.734375 -0.65625 0.734375 -1.828125q0 -0.859375 -0.4375 -1.46875q-0.421875 -0.609375 -1.125 -0.796875q-0.453125 -0.125 -1.671875 -0.125l-3.484375 0l0 4.859375zm10.4279175 7.140625l0 -13.59375l1.671875 0l0 4.875q1.171875 -1.359375 2.953125 -1.359375q1.09375 0 1.890625 0.4375q0.8125 0.421875 1.15625 1.1875q0.359375 0.765625 0.359375 2.203125l0 6.25l-1.671875 0l0 -6.25q0 -1.25 -0.546875 -1.8125q-0.546875 -0.578125 -1.53125 -0.578125q-0.75 0 -1.40625 0.390625q-0.640625 0.375 -0.921875 1.046875q-0.28125 0.65625 -0.28125 1.8125l0 5.390625l-1.671875 0zm16.813232 -1.21875q-0.9375 0.796875 -1.796875 1.125q-0.859375 0.3125 -1.84375 0.3125q-1.609375 0 -2.484375 -0.78125q-0.875 -0.796875 -0.875 -2.03125q0 -0.734375 0.328125 -1.328125q0.328125 -0.59375 0.859375 -0.953125q0.53125 -0.359375 1.203125 -0.546875q0.5 -0.140625 1.484375 -0.25q2.03125 -0.25 2.984375 -0.578125q0 -0.34375 0 -0.4375q0 -1.015625 -0.46875 -1.4375q-0.640625 -0.5625 -1.90625 -0.5625q-1.171875 0 -1.734375 0.40625q-0.5625 0.40625 -0.828125 1.46875l-1.640625 -0.234375q0.234375 -1.046875 0.734375 -1.6875q0.515625 -0.640625 1.46875 -0.984375q0.96875 -0.359375 2.25 -0.359375q1.265625 0 2.046875 0.296875q0.78125 0.296875 1.15625 0.75q0.375 0.453125 0.515625 1.140625q0.09375 0.421875 0.09375 1.53125l0 2.234375q0 2.328125 0.09375 2.953125q0.109375 0.609375 0.4375 1.171875l-1.75 0q-0.265625 -0.515625 -0.328125 -1.21875zm-0.140625 -3.71875q-0.90625 0.359375 -2.734375 0.625q-1.03125 0.140625 -1.453125 0.328125q-0.421875 0.1875 -0.65625 0.546875q-0.234375 0.359375 -0.234375 0.796875q0 0.671875 0.5 1.125q0.515625 0.4375 1.484375 0.4375q0.96875 0 1.71875 -0.421875q0.75 -0.4375 1.109375 -1.15625q0.265625 -0.578125 0.265625 -1.671875l0 -0.609375zm3.4069824 2.0l1.65625 -0.265625q0.140625 1.0 0.765625 1.53125q0.640625 0.515625 1.78125 0.515625q1.15625 0 1.703125 -0.46875q0.5625 -0.46875 0.5625 -1.09375q0 -0.5625 -0.484375 -0.890625q-0.34375 -0.21875 -1.703125 -0.5625q-1.84375 -0.46875 -2.5625 -0.796875q-0.703125 -0.34375 -1.078125 -0.9375q-0.359375 -0.609375 -0.359375 -1.328125q0 -0.65625 0.296875 -1.21875q0.3125 -0.5625 0.828125 -0.9375q0.390625 -0.28125 1.0625 -0.484375q0.671875 -0.203125 1.4375 -0.203125q1.171875 0 2.046875 0.34375q0.875 0.328125 1.28125 0.90625q0.421875 0.5625 0.578125 1.515625l-1.625 0.21875q-0.109375 -0.75 -0.65625 -1.171875q-0.53125 -0.4375 -1.5 -0.4375q-1.15625 0 -1.640625 0.390625q-0.484375 0.375 -0.484375 0.875q0 0.328125 0.203125 0.59375q0.203125 0.265625 0.640625 0.4375q0.25 0.09375 1.46875 0.4375q1.765625 0.46875 2.46875 0.765625q0.703125 0.296875 1.09375 0.875q0.40625 0.578125 0.40625 1.4375q0 0.828125 -0.484375 1.578125q-0.484375 0.734375 -1.40625 1.140625q-0.921875 0.390625 -2.078125 0.390625q-1.921875 0 -2.9375 -0.796875q-1.0 -0.796875 -1.28125 -2.359375zm16.75 -0.234375l1.71875 0.21875q-0.40625 1.5 -1.515625 2.34375q-1.09375 0.828125 -2.8125 0.828125q-2.15625 0 -3.421875 -1.328125q-1.265625 -1.328125 -1.265625 -3.734375q0 -2.484375 1.265625 -3.859375q1.28125 -1.375 3.328125 -1.375q1.984375 0 3.234375 1.34375q1.25 1.34375 1.25 3.796875q0 0.140625 -0.015625 0.4375l-7.34375 0q0.09375 1.625 0.921875 2.484375q0.828125 0.859375 2.0625 0.859375q0.90625 0 1.546875 -0.46875q0.65625 -0.484375 1.046875 -1.546875zm-5.484375 -2.703125l5.5 0q-0.109375 -1.234375 -0.625 -1.859375q-0.796875 -0.96875 -2.078125 -0.96875q-1.140625 0 -1.9375 0.78125q-0.78125 0.765625 -0.859375 2.046875zm13.824646 2.3125l1.765625 -0.15625q0.1875 1.28125 0.890625 1.9375q0.71875 0.640625 1.71875 0.640625q1.203125 0 2.03125 -0.90625q0.84375 -0.90625 0.84375 -2.421875q0 -1.421875 -0.8125 -2.25q-0.796875 -0.828125 -2.09375 -0.828125q-0.796875 0 -1.453125 0.375q-0.640625 0.359375 -1.015625 0.953125l-1.578125 -0.203125l1.328125 -7.0l6.765625 0l0 1.609375l-5.4375 0l-0.734375 3.640625q1.234375 -0.84375 2.578125 -0.84375q1.78125 0 3.0 1.234375q1.234375 1.234375 1.234375 3.171875q0 1.84375 -1.078125 3.1875q-1.3125 1.65625 -3.578125 1.65625q-1.859375 0 -3.03125 -1.03125q-1.171875 -1.046875 -1.34375 -2.765625z" fill-rule="nonzero"></path></g></svg>

